<svg id="Multicolor" xmlns="http://www.w3.org/2000/svg" viewBox="0 0 100 112"><defs><style>.cls-1{fill:#e8f4fa;}.cls-2{fill:#bf8256;}.cls-3{fill:#dea47a;}.cls-4{fill:none;}.cls-10,.cls-4,.cls-8,.cls-9{stroke:#191816;stroke-linecap:round;stroke-linejoin:round;}.cls-5{fill:#fff5e3;}.cls-6{fill:#bdbec0;}.cls-7{fill:#e0e0e0;}.cls-8{fill:#fff;}.cls-9{fill:#ff6242;}.cls-10{fill:#debb7e;}.cls-11{fill:#191816;opacity:0.15;}</style></defs><title>20- business-target-checklist</title><g id="New_Symbol_53-3" data-name="New Symbol 53"><circle class="cls-1" cx="50" cy="56" r="40"/></g><rect class="cls-2" x="24.91" y="35.88" width="29.81" height="37.58" rx="2" ry="2" transform="matrix(0.99, -0.15, 0.15, 0.99, -7.88, 6.72)"/><path class="cls-3" d="M49.7,34.13,24.2,38.07a2,2,0,0,0-1.68,2.28l.46,3A2,2,0,0,1,24.65,41L50.16,37.1a2,2,0,0,1,2.28,1.67l-.46-3A2,2,0,0,0,49.7,34.13Z"/><rect class="cls-4" x="24.91" y="35.88" width="29.81" height="37.58" rx="2" ry="2" transform="matrix(0.99, -0.15, 0.15, 0.99, -7.88, 6.72)"/><rect class="cls-5" x="28.8" y="39.77" width="22.03" height="29.81" transform="translate(-7.88 6.72) rotate(-8.78)"/><rect class="cls-4" x="28.8" y="39.77" width="22.03" height="29.81" transform="translate(-7.88 6.72) rotate(-8.78)"/><polyline class="cls-4" points="35.15 48.2 35.45 50.18 31 50.87 30.32 46.42 32.79 46.04"/><line class="cls-4" x1="37.31" y1="45.84" x2="46.21" y2="44.47"/><line class="cls-4" x1="37.69" y1="48.31" x2="43.62" y2="47.4"/><line class="cls-4" x1="38.61" y1="54.24" x2="47.5" y2="52.87"/><line class="cls-4" x1="38.99" y1="56.71" x2="44.92" y2="55.8"/><line class="cls-4" x1="39.83" y1="62.15" x2="48.72" y2="60.78"/><line class="cls-4" x1="40.21" y1="64.62" x2="46.14" y2="63.7"/><polyline class="cls-4" points="32.03 47.67 33.17 48.51 35.18 45.16"/><polyline class="cls-4" points="36.37 56.11 36.67 58.08 32.23 58.77 31.54 54.32 34.01 53.94"/><polyline class="cls-4" points="33.25 55.58 34.39 56.41 36.4 53.07"/><polyline class="cls-4" points="37.59 64.01 37.89 65.99 33.45 66.68 32.76 62.23 35.23 61.85"/><polyline class="cls-4" points="34.47 63.48 35.61 64.32 37.62 60.97"/><path class="cls-6" d="M40.35,36.89l-.1-.64a3.24,3.24,0,0,0-6.41,1l.1.64-3.84.59.59,3.84,14.09-2.17-.59-3.85Z"/><path class="cls-7" d="M36.85,35.46a3.24,3.24,0,0,1,3.23,1.47l.27,0-.1-.64a3.24,3.24,0,0,0-6.41,1l.1.64.27-.05A3.25,3.25,0,0,1,36.85,35.46Z"/><path class="cls-7" d="M33.5,39.26l-3.2.49-.2-1.28,4.48-.69A1.3,1.3,0,0,1,33.5,39.26Z"/><path class="cls-7" d="M44.39,37.57l-3.2.5A1.3,1.3,0,0,1,39.71,37l4.48-.7Z"/><path class="cls-4" d="M40.35,36.89l-.1-.64a3.24,3.24,0,0,0-6.41,1l.1.64-3.84.59.59,3.84,14.09-2.17-.59-3.85Z"/><circle class="cls-8" cx="57" cy="65.5" r="16"/><path class="cls-9" d="M57,49.5a16,16,0,1,0,16,16A16,16,0,0,0,57,49.5ZM57,78A12.5,12.5,0,1,1,69.5,65.5,12.5,12.5,0,0,1,57,78Z"/><path class="cls-9" d="M57,56a9.5,9.5,0,1,0,9.5,9.5A9.5,9.5,0,0,0,57,56Zm0,15.31a5.81,5.81,0,1,1,5.81-5.81A5.81,5.81,0,0,1,57,71.31Z"/><circle class="cls-9" cx="57" cy="65.5" r="3"/><path class="cls-10" d="M80.92,43.35,58.27,66a1.25,1.25,0,0,1-1.77,0h0a1.25,1.25,0,0,1,0-1.77L79.15,41.58a1,1,0,0,1,1.43,0l.34.34A1,1,0,0,1,80.92,43.35Z"/><path class="cls-9" d="M72.79,47.94V44.11a1,1,0,0,1,.3-.71l4.25-4.25a.5.5,0,0,1,.85.31l.26,2.82Z"/><path class="cls-9" d="M74.56,49.71h3.83a1,1,0,0,0,.71-.3l4.25-4.25a.5.5,0,0,0-.31-.85l-2.82-.26Z"/><ellipse class="cls-11" cx="56.75" cy="82.75" rx="17" ry="1.5"/></svg>